<svg xmlns="http://www.w3.org/2000/svg" viewBox="0 0 260 470">
<defs>
  <linearGradient id="band" x1="0" y1="0" x2="1" y2="0"><stop offset="0" stop-color="#cfc9bf"/><stop offset=".5" stop-color="#e6e1d8"/><stop offset="1" stop-color="#c7c1b6"/></linearGradient>
  <linearGradient id="case" x1="0" y1="0" x2="1" y2="1"><stop offset="0" stop-color="#4b4f57"/><stop offset=".5" stop-color="#25282d"/><stop offset="1" stop-color="#3a3e45"/></linearGradient>
</defs>
<rect x="72" y="0" width="116" height="150" rx="26" fill="url(#band)"/>
<rect x="72" y="320" width="116" height="150" rx="26" fill="url(#band)"/>
<circle cx="130" cy="420" r="5" fill="#b3ada3" opacity=".6"/><circle cx="130" cy="392" r="5" fill="#b3ada3"/><circle cx="130" cy="364" r="5" fill="#b3ada3"/>
<rect x="38" y="120" width="184" height="230" rx="54" fill="url(#case)"/>
<rect x="46" y="128" width="168" height="214" rx="48" fill="#050506"/>
<rect x="222" y="178" width="14" height="40" rx="6" fill="#3d4148"/>
<path d="M224 184h10M224 190h10M224 196h10M224 202h10M224 208h10" stroke="#24272b" stroke-width="1.5"/>
<rect x="223" y="236" width="9" height="46" rx="4" fill="#33363c"/>
<text x="130" y="214" text-anchor="middle" font-family="-apple-system, SF Pro Display, Inter, sans-serif" font-size="56" font-weight="500" fill="#fff" letter-spacing="-2">10:09</text>
<text x="130" y="168" text-anchor="middle" font-family="-apple-system, SF Pro Text, Inter, sans-serif" font-size="14" font-weight="600" fill="#ff5a36">WED 1</text>
<g fill="none" stroke-linecap="round" stroke-width="9" transform="translate(130 282)">
  <circle r="34" stroke="#3a0d12"/><circle r="34" stroke="#fa114f" stroke-dasharray="165 220" transform="rotate(-90)"/>
  <circle r="22" stroke="#1d3a05"/><circle r="22" stroke="#92e82a" stroke-dasharray="110 140" transform="rotate(-90)"/>
  <circle r="10" stroke="#05323a"/><circle r="10" stroke="#1eeaef" stroke-dasharray="48 63" transform="rotate(-90)"/>
</g>
<rect x="46" y="128" width="168" height="214" rx="48" fill="none" stroke="#fff" stroke-opacity=".06" stroke-width="2"/>
</svg>